<svg xmlns="http://www.w3.org/2000/svg" viewBox="0 0 512 512">
  <defs>
    <linearGradient id="grad1" x1="0%" y1="0%" x2="100%" y2="100%">
      <stop offset="0%" style="stop-color:#4f46e5;stop-opacity:1" />
      <stop offset="100%" style="stop-color:#818cf8;stop-opacity:1" />
    </linearGradient>
  </defs>
  <rect width="512" height="512" rx="112" fill="url(#grad1)"/>
  <path fill="#ffffff" d="M256,64c-70.7,0-128,57.3-128,128c0,95.3,121.2,246.6,123.6,249.6c1.1,1.3,2.7,2.1,4.4,2.1s3.3-0.8,4.4-2.1 C262.8,438.6,384,287.3,384,192C384,121.3,326.7,64,256,64z M256,256c-35.3,0-64-28.7-64-64s28.7-64,64-64s64,28.7,64,64 S291.3,256,256,256z"/>
</svg>
